<svg width="26" height="23" viewBox="0 0 21 18" fill="none" xmlns="http://www.w3.org/2000/svg">
<path d="M0.75 0H19.25C19.6642 0 20 0.33579 20 0.75C20 1.1297 19.7178 1.44349 19.3518 1.49315L19.25 1.5H0.75C0.33579 1.5 0 1.16421 0 0.75C0 0.3703 0.28215 0.0565098 0.64823 0.00684977L0.75 0Z" fill="#212121"/>
<path d="M19.25 4H0.75L0.64823 4.00685C0.28215 4.05651 0 4.3703 0 4.75C0 5.1642 0.33579 5.5 0.75 5.5H19.25L19.3518 5.4932C19.7178 5.4435 20 5.1297 20 4.75C20 4.33579 19.6642 4 19.25 4Z" fill="#212121"/>
<path d="M0.75 9.5H9.7322C10.0194 8.949 10.3832 8.4443 10.8096 8H0.75L0.64823 8.0068C0.28215 8.0565 0 8.3703 0 8.75C0 9.1642 0.33579 9.5 0.75 9.5Z" fill="#212121"/>
<path d="M0.75 12H9.0189C9.0064 12.165 9 12.3318 9 12.5C9 12.8401 9.0261 13.174 9.0764 13.5H0.75C0.33579 13.5 0 13.1642 0 12.75C0 12.3703 0.28215 12.0565 0.64823 12.0068L0.75 12Z" fill="#212121"/>
<path d="M10 12.5C10 15.5376 12.4624 18 15.5 18C18.5376 18 21 15.5376 21 12.5C21 9.4624 18.5376 7 15.5 7C12.4624 7 10 9.4624 10 12.5ZM16.35 15.3536L16.2808 15.4114C16.0859 15.5464 15.8165 15.5271 15.6429 15.3536L15.5851 15.2843C15.4501 15.0894 15.4694 14.82 15.6429 14.6464L17.289 13H12.5L12.4101 12.9919C12.1769 12.9496 12 12.7455 12 12.5L12.0081 12.4101C12.0504 12.1769 12.2545 12 12.5 12H17.289L15.6429 10.3536L15.5851 10.2843C15.4501 10.0894 15.4694 9.82 15.6429 9.6464C15.8382 9.4512 16.1548 9.4512 16.35 9.6464L18.8657 12.1629L18.9166 12.2289L18.9505 12.2902L18.9795 12.3704L18.9945 12.4557L18.9921 12.5659L18.9732 12.6512L18.9504 12.7099L18.9063 12.7866L18.8656 12.8372L16.35 15.3536Z" fill="#212121"/>
</svg>
