<svg width="25" height="25" viewBox="0 0 25 25" fill="none" xmlns="http://www.w3.org/2000/svg">
<circle cx="12.5" cy="12.5" r="11.5" stroke="#1890FF" stroke-width="2"/>
<path d="M13.3271 10.1035V17.5H11.6729V10.1035H13.3271ZM11.5635 8.16211C11.5635 7.91146 11.6455 7.7041 11.8096 7.54004C11.9782 7.37142 12.2106 7.28711 12.5068 7.28711C12.7985 7.28711 13.0286 7.37142 13.1973 7.54004C13.3659 7.7041 13.4502 7.91146 13.4502 8.16211C13.4502 8.4082 13.3659 8.61328 13.1973 8.77734C13.0286 8.94141 12.7985 9.02344 12.5068 9.02344C12.2106 9.02344 11.9782 8.94141 11.8096 8.77734C11.6455 8.61328 11.5635 8.4082 11.5635 8.16211Z" fill="#1890FF"/>
</svg>
